<svg width="38" height="38" viewBox="0 0 38 38" fill="none" xmlns="http://www.w3.org/2000/svg">
<path fill-rule="evenodd" clip-rule="evenodd" d="M7 6.9703L10.1147 4H28.2096L31.3243 6.9703V31.2525L27.7647 34H10.1147L7 31.0297V6.9703Z" stroke="#231F20" stroke-width="0.7058"/>
<path fill-rule="evenodd" clip-rule="evenodd" d="M9.43237 8.85501L11.9385 6.42969H26.3857L28.8918 8.85501V29.2865L26.0171 31.5648H11.9385L9.43237 29.1395V8.85501Z" stroke="#231F20" stroke-width="0.7058"/>
<path d="M10.2432 4L11.9977 6.51351L19 8L26.3265 6.51351L28.081 4" stroke="#231F20" stroke-width="0.7058"/>
<path d="M9.99976 34L11.9998 31.5L18.9998 29.5L25.9998 31.5L27.2702 34.0001" stroke="#231F20" stroke-width="0.7058"/>
<path d="M7 7.24219L9.3731 8.86381L19.1622 8.32327L28.9512 8.70165L31.3243 7.24219" stroke="#231F20" stroke-width="0.7058"/>
<path d="M7 30.5743L9.3731 29.1328L19.1622 29.4331L28.9512 29.2529L31.3243 30.7544" stroke="#231F20" stroke-width="0.7058"/>
<path d="M9.5 29L11.8648 18.775L9.5 9" stroke="#231F20" stroke-width="0.7058"/>
<path d="M28.8919 8.86719L26.4595 19.0392L28.8919 29.1375" stroke="#231F20" stroke-width="0.7058"/>
<path d="M11.946 6.42969L12.5947 18.9973L11.946 31.5648" stroke="#231F20" stroke-width="0.7058"/>
<path d="M26.2567 6.42969V19.2177L25.8513 31.5648" stroke="#231F20" stroke-width="0.7058"/>
</svg>
