<svg width="38" height="38" viewBox="0 0 38 38" fill="none" xmlns="http://www.w3.org/2000/svg">
<g clip-path="url(#clip0_6294_24010)">
<path d="M15.0845 9.35161L9.34795 23.0101L23.0065 28.7467L28.7431 15.0882L15.0845 9.35161ZM15.0845 9.35161L19 4.34183L23.0975 9.35161M15.0845 9.35161L8.68241 8.79468L9.34795 14.9061M15.0845 9.35161L13.1723 5.34511M23.0975 9.35161L9.34795 14.9971L14.9935 28.7467L28.7431 23.1012L23.0975 9.35161ZM23.0975 9.35161L29.4262 8.68607L28.652 15.0882L33.6618 19.2768L28.652 23.1012L29.3176 29.3212L22.9154 28.6557M23.0975 9.35161L24.6455 5.25405M9.34795 14.9061L4.33817 19.4381L9.34795 22.9191M9.34795 14.9061L5.15933 13.5402M9.34795 22.9191L8.68241 29.3212L14.9024 28.6557M9.34795 22.9191L5.25039 24.6492M14.9024 28.6557L19.3258 33.6655L22.9154 28.6557M14.9024 28.6557L13.2634 32.7532M22.9154 28.6557L24.4634 32.7532M28.652 23.1923L32.8406 24.7402M28.7431 14.9061L32.8406 13.6313M19 4.07031C27.2862 4.07031 33.9333 10.7175 33.9333 19.0036C33.9333 27.2898 27.2862 33.937 19 33.937C10.7138 33.937 4.06665 27.2898 4.06665 19.0036C4.06665 10.7175 10.7138 4.07031 19 4.07031Z" stroke="#231F20" stroke-width="0.706" stroke-miterlimit="10"/>
</g>
<defs>
<clipPath id="clip0_6294_24010">
<rect width="32" height="32" fill="white" transform="translate(3 3)"/>
</clipPath>
</defs>
</svg>
