<svg width="38" height="38" viewBox="0 0 38 38" fill="none" xmlns="http://www.w3.org/2000/svg">
<path d="M19.125 33.55C24.7169 33.55 29.25 26.935 29.25 18.775C29.25 10.615 24.7169 4 19.125 4C13.5331 4 9 10.615 9 18.775C9 26.935 13.5331 33.55 19.125 33.55Z" stroke="#231F20" stroke-width="0.6739"/>
<path fill-rule="evenodd" clip-rule="evenodd" d="M18.9998 4.5L16.275 9.4751L13.575 18.8501L16.35 28.5251L18.9998 33L21.975 28.3001L24.825 18.7751L21.75 9.2501L18.9998 4.5Z" stroke="#231F20" stroke-width="0.7197"/>
<path fill-rule="evenodd" clip-rule="evenodd" d="M19.1249 11.0469L12.5249 14.9469L9.1499 18.9219L12.2999 22.8969L19.1249 26.8719L26.0999 22.5219L29.0999 18.9219L25.8749 14.9469L19.1249 11.0469Z" stroke="#231F20" stroke-width="0.7197"/>
<path fill-rule="evenodd" clip-rule="evenodd" d="M19.1251 11.05L16.2751 9.475L11.8501 8.875L12.5251 14.95L13.5751 18.85L12.2251 22.75L12.1501 29.05L16.3501 28.525L19.1251 26.875L21.8251 28.525L26.2501 28.9L26.1001 22.525L24.8251 18.775L26.0251 15.175L26.6251 9.175L21.7501 9.25L19.1251 11.05Z" stroke="#231F20" stroke-width="0.7197"/>
<path d="M15.2251 5.27344L16.2751 9.47344" stroke="#231F20" stroke-width="0.7197"/>
<path d="M9.6001 13.75L12.5251 14.95" stroke="#231F20" stroke-width="0.7197"/>
<path d="M23.175 5.27344L21.75 9.24844" stroke="#231F20" stroke-width="0.7197"/>
<path d="M28.575 13.4531L25.875 14.9531" stroke="#231F20" stroke-width="0.7197"/>
<path d="M9.8999 24.7734L12.2999 22.8984" stroke="#231F20" stroke-width="0.7197"/>
<path d="M15 32.2734L16.35 28.5234" stroke="#231F20" stroke-width="0.7197"/>
<path d="M21.825 28.5234L23.25 32.2734" stroke="#231F20" stroke-width="0.7197"/>
<path d="M26.1001 22.5234L28.5001 24.4734" stroke="#231F20" stroke-width="0.7197"/>
</svg>
