<svg width="38" height="38" viewBox="0 0 38 38" fill="none" xmlns="http://www.w3.org/2000/svg">
<path fill-rule="evenodd" clip-rule="evenodd" d="M10.225 4H27.775L31 7.375V30.475L28.525 33.85H10.225L7 31V7L10.225 4Z" stroke="#231F20" stroke-width="0.6886"/>
<path fill-rule="evenodd" clip-rule="evenodd" d="M11.0499 5.64844H26.7249L29.3499 8.87344V28.8234L27.2499 31.7484H11.4999L8.6499 29.2734V8.64844L11.0499 5.64844Z" stroke="#231F20" stroke-width="0.6886"/>
<path fill-rule="evenodd" clip-rule="evenodd" d="M12.025 7.45312H25.675L27.9249 10.0781V27.4781L26.125 30.0281H12.475L10.075 27.8531V9.92812L12.025 7.45312Z" stroke="#231F20" stroke-width="0.6886"/>
<path fill-rule="evenodd" clip-rule="evenodd" d="M13.075 9.10156H24.625L26.575 11.3516V26.2016L25 28.3016H13.525L11.425 26.5016V11.1266L13.075 9.10156Z" stroke="#231F20" stroke-width="0.6886"/>
<path d="M11.425 26.5L7 31" stroke="#231F20" stroke-width="0.6886"/>
<path d="M13.5251 28.2969L10.2251 33.8469" stroke="#231F20" stroke-width="0.6886"/>
<path d="M25 28.2969L28.525 33.8469" stroke="#231F20" stroke-width="0.6886"/>
<path d="M26.575 26.2031L31 30.4781" stroke="#231F20" stroke-width="0.6886"/>
<path d="M26.575 11.35L31 7.375" stroke="#231F20" stroke-width="0.6886"/>
<path d="M24.625 9.1L27.775 4" stroke="#231F20" stroke-width="0.6886"/>
<path d="M11.425 11.125L7 7" stroke="#231F20" stroke-width="0.6886"/>
<path d="M13.0751 9.1L10.2251 4" stroke="#231F20" stroke-width="0.6886"/>
</svg>
